<?xml version="1.0" encoding="UTF-8" standalone="no" ?>
<!DOCTYPE svg PUBLIC "-//W3C//DTD SVG 1.1//EN" "http://www.w3.org/Graphics/SVG/1.1/DTD/svg11.dtd">
<svg xmlns="http://www.w3.org/2000/svg" xmlns:xlink="http://www.w3.org/1999/xlink" version="1.1" width="216" height="216" viewBox="0 0 100 100" xml:space="preserve">
<desc>Created with Fabric.js 5.3.0</desc>
<defs>
</defs>
<g transform="matrix(4.725 0 0 4.03 50 67)" id="eMsdKd2vk8HG6L3Ilw_iK"  >
<path style="stroke: rgb(22,255,125); stroke-width: 0; stroke-dasharray: none; stroke-linecap: butt; stroke-dashoffset: 0; stroke-linejoin: miter; stroke-miterlimit: 4; fill: rgb(28,216,71); fill-rule: nonzero; opacity: 1;"  transform=" translate(0, 0)" d="M 0 -8.18331 C 4.51718 -8.18331 8.18331 -4.517190000000001 8.18331 0 C 8.18331 4.51718 4.517190000000001 8.18331 0 8.18331 C -4.51718 8.18331 -8.18331 4.517190000000001 -8.18331 0 C -8.18331 -4.51718 -4.517190000000001 -8.18331 0 -8.18331 z" stroke-linecap="round" />
</g>
<g transform="matrix(3.0649985227 0 0 3.0649985227 50.0000120897 64.9999879103)" id="v8ChdIg0vTIsqsxTvgaLm"  >
<path style="stroke: rgb(22,255,125); stroke-width: 0; stroke-dasharray: none; stroke-linecap: butt; stroke-dashoffset: 0; stroke-linejoin: miter; stroke-miterlimit: 4; fill: rgb(255,220,148); fill-rule: nonzero; opacity: 1;"  transform=" translate(0, 0)" d="M 0 -8.18331 C 4.51718 -8.18331 8.18331 -4.517190000000001 8.18331 0 C 8.18331 4.51718 4.517190000000001 8.18331 0 8.18331 C -4.51718 8.18331 -8.18331 4.517190000000001 -8.18331 0 C -8.18331 -4.51718 -4.517190000000001 -8.18331 0 -8.18331 z" stroke-linecap="round" />
</g>
<g transform="matrix(0.792231908 0 0 0.792231908 50 24.5105546282)" id="asSc6L8gBoW0_-MBEbA9n"  >
<path style="stroke: rgb(22,255,125); stroke-width: 0; stroke-dasharray: none; stroke-linecap: butt; stroke-dashoffset: 0; stroke-linejoin: miter; stroke-miterlimit: 4; fill: rgb(255,220,148); fill-rule: nonzero; opacity: 1;"  transform=" translate(0, 0)" d="M 0 -8.18331 C 4.51718 -8.18331 8.18331 -4.517190000000001 8.18331 0 C 8.18331 4.51718 4.517190000000001 8.18331 0 8.18331 C -4.51718 8.18331 -8.18331 4.517190000000001 -8.18331 0 C -8.18331 -4.51718 -4.517190000000001 -8.18331 0 -8.18331 z" stroke-linecap="round" />
</g>
<g transform="matrix(0.792231908 0 0 0.792231908 66.9394435352 25.361618458)" id="Ih3GxjPK1mpQO8GM5sxqs"  >
<path style="stroke: rgb(22,255,125); stroke-width: 0; stroke-dasharray: none; stroke-linecap: butt; stroke-dashoffset: 0; stroke-linejoin: miter; stroke-miterlimit: 4; fill: rgb(255,220,148); fill-rule: nonzero; opacity: 1;"  transform=" translate(0, 0)" d="M 0 -8.18331 C 4.51718 -8.18331 8.18331 -4.517190000000001 8.18331 0 C 8.18331 4.51718 4.517190000000001 8.18331 0 8.18331 C -4.51718 8.18331 -8.18331 4.517190000000001 -8.18331 0 C -8.18331 -4.51718 -4.517190000000001 -8.18331 0 -8.18331 z" stroke-linecap="round" />
</g>
<g transform="matrix(3.0649985227 0 0 2.1974992613 50 74.0990119586)" id="IWFqYcXmF1HgnE-v0rIwV"  >
<path style="stroke: rgb(22,255,125); stroke-width: 0; stroke-dasharray: none; stroke-linecap: butt; stroke-dashoffset: 0; stroke-linejoin: miter; stroke-miterlimit: 4; fill: rgb(14,75,28); fill-rule: nonzero; opacity: 1;"  transform=" translate(0, 0)" d="M 0 -8.18331 C 4.51718 -8.18331 8.18331 -4.517190000000001 8.18331 0 C 8.18331 4.51718 4.517190000000001 8.18331 0 8.18331 C -4.51718 8.18331 -8.18331 4.517190000000001 -8.18331 0 C -8.18331 -4.51718 -4.517190000000001 -8.18331 0 -8.18331 z" stroke-linecap="round" />
</g>
<g transform="matrix(1.9910115791 0 0 1.4274873028 48.6415727134 76.6815533997)" id="gizHvKHEYLTX2I9VDCwjx"  >
<path style="stroke: rgb(22,255,125); stroke-width: 0; stroke-dasharray: none; stroke-linecap: butt; stroke-dashoffset: 0; stroke-linejoin: miter; stroke-miterlimit: 4; fill: rgb(71,123,10); fill-rule: nonzero; opacity: 1;"  transform=" translate(0, 0)" d="M 0 -8.18331 C 4.51718 -8.18331 8.18331 -4.517190000000001 8.18331 0 C 8.18331 4.51718 4.517190000000001 8.18331 0 8.18331 C -4.51718 8.18331 -8.18331 4.517190000000001 -8.18331 0 C -8.18331 -4.51718 -4.517190000000001 -8.18331 0 -8.18331 z" stroke-linecap="round" />
</g>
<g transform="matrix(0.385 0 0 0.385 63.7888707038 52.9656301146)" id="4nBNb-AijTDDK2b8SlIvU"  >
<path style="stroke: rgb(6,252,121); stroke-width: 0; stroke-dasharray: none; stroke-linecap: butt; stroke-dashoffset: 0; stroke-linejoin: miter; stroke-miterlimit: 4; fill: rgb(0,0,0); fill-rule: nonzero; opacity: 1;"  transform=" translate(0, 0)" d="M 0 -8.18331 C 4.51718 -8.18331 8.18331 -4.517190000000001 8.18331 0 C 8.18331 4.51718 4.517190000000001 8.18331 0 8.18331 C -4.51718 8.18331 -8.18331 4.517190000000001 -8.18331 0 C -8.18331 -4.51718 -4.517190000000001 -8.18331 0 -8.18331 z" stroke-linecap="round" />
</g>
<g transform="matrix(0.385 0 0 0.385 45.4909983634 49.8150557646)" id="aj3kwzGONE-9gPCodQCay"  >
<path style="stroke: rgb(6,252,121); stroke-width: 0; stroke-dasharray: none; stroke-linecap: butt; stroke-dashoffset: 0; stroke-linejoin: miter; stroke-miterlimit: 4; fill: rgb(0,0,0); fill-rule: nonzero; opacity: 1;"  transform=" translate(0, 0)" d="M 0 -8.18331 C 4.51718 -8.18331 8.18331 -4.517190000000001 8.18331 0 C 8.18331 4.51718 4.517190000000001 8.18331 0 8.18331 C -4.51718 8.18331 -8.18331 4.517190000000001 -8.18331 0 C -8.18331 -4.51718 -4.517190000000001 -8.18331 0 -8.18331 z" stroke-linecap="round" />
</g>
<g transform="matrix(0.48 0 0 1.3389694777 58.674304419 22.1633614121)" id="RvpibJFM4QJaqxP2FFj2D"  >
<path style="stroke: rgb(80,20,37); stroke-width: 0; stroke-dasharray: none; stroke-linecap: butt; stroke-dashoffset: 0; stroke-linejoin: miter; stroke-miterlimit: 4; fill: rgb(59,59,59); fill-rule: nonzero; opacity: 1;"  transform=" translate(0.000005, 0.000005)" d="M -8.18331 -8.18331 L 8.183300000000001 -8.18331 L 8.183300000000001 8.183300000000001 L -8.18331 8.183300000000001 z" stroke-linecap="round" />
</g>
<g transform="matrix(0.2430000195 0 0 0.4600000864 58.649754598 36.8848785259)" id="BaiH0CS0ecabJifpP9vK_"  >
<path style="stroke: rgb(80,20,37); stroke-width: 0; stroke-dasharray: none; stroke-linecap: butt; stroke-dashoffset: 0; stroke-linejoin: miter; stroke-miterlimit: 4; fill: rgb(105,55,27); fill-rule: nonzero; opacity: 1;"  transform=" translate(0.000005, 0.000005)" d="M -8.18331 -8.18331 L 8.183300000000001 -8.18331 L 8.183300000000001 8.183300000000001 L -8.18331 8.183300000000001 z" stroke-linecap="round" />
</g>
<g transform="matrix(0.4949747468 0.4949747468 -2.1800659082 2.1800659082 28.1093356981 39.9181548495)" id="AAT8URorTVcUvrnO87J8L"  >
<path style="stroke: rgb(26,81,232); stroke-width: 0; stroke-dasharray: none; stroke-linecap: butt; stroke-dashoffset: 0; stroke-linejoin: miter; stroke-miterlimit: 4; fill: rgb(78,255,80); fill-rule: nonzero; opacity: 1;"  transform=" translate(0.000005, 0.000005)" d="M -8.18331 -8.18331 L 8.183300000000001 -8.18331 L 8.183300000000001 8.183300000000001 L -8.18331 8.183300000000001 z" stroke-linecap="round" />
</g>
<g transform="matrix(0.5078192401 -0.2587468266 1.13962407 2.2366381721 77.2704035197 46.6644814146)" id="9MP3AGA3Aw5x5kwwSNY-i"  >
<path style="stroke: rgb(26,81,232); stroke-width: 0; stroke-dasharray: none; stroke-linecap: butt; stroke-dashoffset: 0; stroke-linejoin: miter; stroke-miterlimit: 4; fill: rgb(78,255,80); fill-rule: nonzero; opacity: 1;"  transform=" translate(0.000005, 0.000005)" d="M -8.18331 -8.18331 L 8.183300000000001 -8.18331 L 8.183300000000001 8.183300000000001 L -8.18331 8.183300000000001 z" stroke-linecap="round" />
</g>
<g transform="matrix(1.3765055131 0 0 1.4274873028 12.7127154125 60.3476745126)" id="jtK3i2wpyMJuewTSJBLBX"  >
<path style="stroke: rgb(22,255,125); stroke-width: 0; stroke-dasharray: none; stroke-linecap: butt; stroke-dashoffset: 0; stroke-linejoin: miter; stroke-miterlimit: 4; fill: rgb(71,123,10); fill-rule: nonzero; opacity: 1;"  transform=" translate(0, 0)" d="M 0 -8.18331 C 4.51718 -8.18331 8.18331 -4.517190000000001 8.18331 0 C 8.18331 4.51718 4.517190000000001 8.18331 0 8.18331 C -4.51718 8.18331 -8.18331 4.517190000000001 -8.18331 0 C -8.18331 -4.51718 -4.517190000000001 -8.18331 0 -8.18331 z" stroke-linecap="round" />
</g>
<g transform="matrix(1.3765055131 0 0 1.4274873028 86.3462164809 73.490402361)" id="l7tT7KmNIv5rxMTcYc-7i"  >
<path style="stroke: rgb(22,255,125); stroke-width: 0; stroke-dasharray: none; stroke-linecap: butt; stroke-dashoffset: 0; stroke-linejoin: miter; stroke-miterlimit: 4; fill: rgb(71,123,10); fill-rule: nonzero; opacity: 1;"  transform=" translate(0, 0)" d="M 0 -8.18331 C 4.51718 -8.18331 8.18331 -4.517190000000001 8.18331 0 C 8.18331 4.51718 4.517190000000001 8.18331 0 8.18331 C -4.51718 8.18331 -8.18331 4.517190000000001 -8.18331 0 C -8.18331 -4.51718 -4.517190000000001 -8.18331 0 -8.18331 z" stroke-linecap="round" />
</g>
<g transform="matrix(0.1479999881 0 0 1.7589226092 58.649754598 14.4756351002)" id="h5JLhBhOs6LGvX3mHmrmT"  >
<path style="stroke: rgb(80,20,37); stroke-width: 0; stroke-dasharray: none; stroke-linecap: butt; stroke-dashoffset: 0; stroke-linejoin: miter; stroke-miterlimit: 4; fill: rgb(59,59,59); fill-rule: nonzero; opacity: 1;"  transform=" translate(0.000005, 0.000005)" d="M -8.18331 -8.18331 L 8.183300000000001 -8.18331 L 8.183300000000001 8.183300000000001 L -8.18331 8.183300000000001 z" stroke-linecap="round" />
</g>
</svg>